<svg width="12" height="12" viewBox="0 0 12 12" fill="none" xmlns="http://www.w3.org/2000/svg">
<path d="M10.1667 0C10.6529 0 11.1192 0.193154 11.463 0.536971C11.8068 0.880788 12 1.3471 12 1.83333V10.1667C12 10.6529 11.8068 11.1192 11.463 11.463C11.1192 11.8068 10.6529 12 10.1667 12H1.83333C1.3471 12 0.880788 11.8068 0.536971 11.463C0.193154 11.1192 0 10.6529 0 10.1667V1.83333C0 1.3471 0.193154 0.880788 0.536971 0.536971C0.880788 0.193154 1.3471 0 1.83333 0H10.1667ZM10.1667 1H1.83333C1.37333 1 1 1.37333 1 1.83333V10.1667C1 10.6267 1.37333 11 1.83333 11H10.1667C10.6267 11 11 10.6267 11 10.1667V1.83333C11 1.37333 10.6267 1 10.1667 1Z" fill="#B5B5C8"/>
</svg>
