<svg width="20" height="20" viewBox="0 0 20 20" fill="none" xmlns="http://www.w3.org/2000/svg">
<path d="M16.0606 9.3941H10.6061V3.93956C10.6061 3.77882 10.5422 3.62467 10.4286 3.51101C10.3149 3.39735 10.1607 3.3335 10 3.3335C9.83927 3.3335 9.68512 3.39735 9.57146 3.51101C9.4578 3.62467 9.39395 3.77882 9.39395 3.93956V9.3941H3.9394C3.77867 9.3941 3.62451 9.45795 3.51085 9.57161C3.3972 9.68527 3.33334 9.83943 3.33334 10.0002C3.33334 10.1609 3.3972 10.3151 3.51085 10.4287C3.62451 10.5424 3.77867 10.6062 3.9394 10.6062H9.39395V16.0608C9.39395 16.2215 9.4578 16.3757 9.57146 16.4893C9.68512 16.603 9.83927 16.6668 10 16.6668C10.1607 16.6668 10.3149 16.603 10.4286 16.4893C10.5422 16.3757 10.6061 16.2215 10.6061 16.0608V10.6062H16.0606C16.2214 10.6062 16.3755 10.5424 16.4892 10.4287C16.6028 10.3151 16.6667 10.1609 16.6667 10.0002C16.6667 9.83943 16.6028 9.68527 16.4892 9.57161C16.3755 9.45795 16.2214 9.3941 16.0606 9.3941Z" fill="#B5B5C8"/>
</svg>
