<svg width="20" height="20" viewBox="0 0 20 20" fill="none" xmlns="http://www.w3.org/2000/svg">
<path d="M16.0606 9.3941H10.606V3.93956C10.606 3.77882 10.5422 3.62467 10.4285 3.51101C10.3149 3.39735 10.1607 3.3335 9.99998 3.3335C9.83924 3.3335 9.68509 3.39735 9.57143 3.51101C9.45777 3.62467 9.39392 3.77882 9.39392 3.93956V9.3941H3.93937C3.77864 9.3941 3.62448 9.45795 3.51082 9.57161C3.39717 9.68527 3.33331 9.83943 3.33331 10.0002C3.33331 10.1609 3.39717 10.3151 3.51082 10.4287C3.62448 10.5424 3.77864 10.6062 3.93937 10.6062H9.39392V16.0608C9.39392 16.2215 9.45777 16.3757 9.57143 16.4893C9.68509 16.603 9.83924 16.6668 9.99998 16.6668C10.1607 16.6668 10.3149 16.603 10.4285 16.4893C10.5422 16.3757 10.606 16.2215 10.606 16.0608V10.6062H16.0606C16.2213 10.6062 16.3755 10.5424 16.4891 10.4287C16.6028 10.3151 16.6666 10.1609 16.6666 10.0002C16.6666 9.83943 16.6028 9.68527 16.4891 9.57161C16.3755 9.45795 16.2213 9.3941 16.0606 9.3941Z" fill="#B5B5C8"/>
</svg>
