<svg width="18" height="18" viewBox="0 0 18 18" fill="none" xmlns="http://www.w3.org/2000/svg">
<path fill-rule="evenodd" clip-rule="evenodd" d="M14.6333 13.2495L16.3 14.9162V15.4667H1.69999V14.9162L3.36666 13.2495V8.1667C3.36666 5.67152 5.00047 3.47484 7.39014 2.76679L7.53333 2.72437V2.33337C7.53333 1.94438 7.68785 1.57133 7.9629 1.29628C8.23796 1.02122 8.61101 0.866699 8.99999 0.866699C9.38898 0.866699 9.76203 1.02122 10.0371 1.29628C10.3121 1.57133 10.4667 1.94438 10.4667 2.33337V2.72437L10.6098 2.76679C12.9995 3.47484 14.6333 5.67152 14.6333 8.1667V13.2495ZM4.63333 8.1667V14H13.3667V8.1667C13.3667 7.00859 12.9066 5.89791 12.0877 5.079C11.2688 4.26009 10.1581 3.80003 8.99999 3.80003C7.84188 3.80003 6.7312 4.26009 5.91229 5.079C5.09339 5.89791 4.63333 7.00859 4.63333 8.1667Z" fill="#B5B5C8"/>
<path d="M7.54483 16.45H10.4552C10.4382 16.6076 10.4026 16.7832 10.3491 16.9526C10.2704 17.2019 10.1607 17.4135 10.0371 17.5371C9.76203 17.8122 9.38898 17.9667 8.99999 17.9667C8.61101 17.9667 8.23796 17.8122 7.9629 17.5371C7.83932 17.4135 7.72961 17.2019 7.65092 16.9526C7.59741 16.7832 7.5618 16.6076 7.54483 16.45Z" fill="#B5B5C8"/>
<path d="M16.1059 5.20403C15.7396 4.32745 15.2142 3.52693 14.5568 2.84269L15.4578 1.94177C17.0261 3.55889 17.9147 5.71581 17.9644 7.9667H16.6974C16.6727 7.01775 16.4723 6.08098 16.1059 5.20403Z" fill="#B5B5C8"/>
<path d="M1.30259 7.9667H0.0351868C0.0580442 6.85103 0.289753 5.74889 0.71893 4.71755C1.14819 3.686 1.76692 2.74468 2.5425 1.94205L3.44317 2.84272C2.11484 4.22583 1.35235 6.05267 1.30259 7.9667Z" fill="#B5B5C8"/>
</svg>
