<svg width="24" height="24" viewBox="0 0 24 24" fill="none" xmlns="http://www.w3.org/2000/svg">
<path d="M19.2 8.4H4.8V6.6H19.2V8.4ZM17.4 3H6.6V4.8H17.4V3ZM21 12V19.2C21 19.6774 20.8104 20.1352 20.4728 20.4728C20.1352 20.8104 19.6774 21 19.2 21H4.8C4.32305 20.9986 3.86604 20.8085 3.52878 20.4712C3.19152 20.134 3.00142 19.677 3 19.2V12C3.00142 11.523 3.19152 11.066 3.52878 10.7288C3.86604 10.3915 4.32305 10.2014 4.8 10.2H19.2C19.677 10.2014 20.134 10.3915 20.4712 10.7288C20.8085 11.066 20.9986 11.523 21 12ZM13.7343 16.5378L15.825 14.7504L13.0719 14.52L12 12L10.9281 14.52L8.175 14.7504L10.2657 16.5378L9.6357 19.2L12 17.7852L14.3643 19.2L13.7343 16.5378Z" fill="white"/>
</svg>
