<svg width="28" height="28" viewBox="0 0 28 28" fill="none" xmlns="http://www.w3.org/2000/svg">
<path d="M22.4 9.8H5.6V7.7H22.4V9.8ZM20.3 3.5H7.7V5.6H20.3V3.5ZM24.5 14V22.4C24.5 22.957 24.2787 23.4911 23.8849 23.8849C23.4911 24.2787 22.957 24.5 22.4 24.5H5.6C5.04356 24.4983 4.51038 24.2766 4.11691 23.8831C3.72344 23.4896 3.50166 22.9564 3.5 22.4V14C3.50166 13.4436 3.72344 12.9104 4.11691 12.5169C4.51038 12.1234 5.04356 11.9017 5.6 11.9H22.4C22.9564 11.9017 23.4896 12.1234 23.8831 12.5169C24.2766 12.9104 24.4983 13.4436 24.5 14ZM16.0233 19.2941L18.4625 17.2088L15.2505 16.94L14 14L12.7494 16.94L9.5375 17.2088L11.9766 19.2941L11.2416 22.4L14 20.7494L16.7583 22.4L16.0233 19.2941Z" fill="#DDDDDD"/>
</svg>
