<svg width="25" height="25" viewBox="0 0 25 25" fill="none" xmlns="http://www.w3.org/2000/svg">
<path d="M8.33333 5H9.16667C9.38768 5 9.59964 5.0878 9.75592 5.24408C9.9122 5.40036 10 5.61232 10 5.83333V6.66667H14.1667V5.83333C14.1667 5.61232 14.2545 5.40036 14.4107 5.24408C14.567 5.0878 14.779 5 15 5H15.8333C16.0543 5 16.2663 5.0878 16.4226 5.24408C16.5789 5.40036 16.6667 5.61232 16.6667 5.83333V6.66667C17.3297 6.66667 17.9656 6.93006 18.4344 7.3989C18.9033 7.86774 19.1667 8.50363 19.1667 9.16667V18.3333C19.1667 18.9964 18.9033 19.6323 18.4344 20.1011C17.9656 20.5699 17.3297 20.8333 16.6667 20.8333H7.5C6.83696 20.8333 6.20107 20.5699 5.73223 20.1011C5.26339 19.6323 5 18.9964 5 18.3333V9.16667C5 8.50363 5.26339 7.86774 5.73223 7.3989C6.20107 6.93006 6.83696 6.66667 7.5 6.66667V5.83333C7.5 5.61232 7.5878 5.40036 7.74408 5.24408C7.90036 5.0878 8.11232 5 8.33333 5ZM15 6.66667H15.8333V5.83333H15V6.66667ZM9.16667 6.66667V5.83333H8.33333V6.66667H9.16667ZM7.5 7.5C7.05797 7.5 6.63405 7.67559 6.32149 7.98816C6.00893 8.30072 5.83333 8.72464 5.83333 9.16667V10H18.3333V9.16667C18.3333 8.72464 18.1577 8.30072 17.8452 7.98816C17.5326 7.67559 17.1087 7.5 16.6667 7.5H7.5ZM5.83333 18.3333C5.83333 18.7754 6.00893 19.1993 6.32149 19.5118C6.63405 19.8244 7.05797 20 7.5 20H16.6667C17.1087 20 17.5326 19.8244 17.8452 19.5118C18.1577 19.1993 18.3333 18.7754 18.3333 18.3333V10.8333H5.83333V18.3333ZM12.5 14.1667H16.6667V18.3333H12.5V14.1667ZM13.3333 15V17.5H15.8333V15H13.3333Z" fill="black"/>
</svg>
