<svg width="16" height="16" viewBox="0 0 16 16" fill="none" xmlns="http://www.w3.org/2000/svg">
<path d="M12.1667 2C12.6529 2 13.1192 2.19315 13.463 2.53697C13.8068 2.88079 14 3.3471 14 3.83333V12.1667C14 12.6529 13.8068 13.1192 13.463 13.463C13.1192 13.8068 12.6529 14 12.1667 14H3.83333C3.3471 14 2.88079 13.8068 2.53697 13.463C2.19315 13.1192 2 12.6529 2 12.1667V3.83333C2 3.3471 2.19315 2.88079 2.53697 2.53697C2.88079 2.19315 3.3471 2 3.83333 2H12.1667ZM12.1667 3H3.83333C3.37333 3 3 3.37333 3 3.83333V12.1667C3 12.6267 3.37333 13 3.83333 13H12.1667C12.6267 13 13 12.6267 13 12.1667V3.83333C13 3.37333 12.6267 3 12.1667 3Z" fill="#B5B5C8"/>
</svg>
