<svg width="24" height="24" viewBox="0 0 24 24" fill="none" xmlns="http://www.w3.org/2000/svg">
<path d="M18 3C18.7956 3 19.5587 3.31607 20.1213 3.87868C20.6839 4.44129 21 5.20435 21 6V18C21 18.7956 20.6839 19.5587 20.1213 20.1213C19.5587 20.6839 18.7956 21 18 21H6C5.20435 21 4.44129 20.6839 3.87868 20.1213C3.31607 19.5587 3 18.7956 3 18V6C3 5.20435 3.31607 4.44129 3.87868 3.87868C4.44129 3.31607 5.20435 3 6 3H18ZM16.47 7.97L10 14.44L7.53 11.97C7.38783 11.8375 7.19978 11.7654 7.00548 11.7688C6.81118 11.7723 6.62579 11.851 6.48838 11.9884C6.35097 12.1258 6.27225 12.3112 6.26883 12.5055C6.2654 12.6998 6.33752 12.8878 6.47 13.03L9.47 16.03C9.61063 16.1705 9.80125 16.2493 10 16.2493C10.1988 16.2493 10.3894 16.1705 10.53 16.03L17.53 9.03C17.6625 8.88783 17.7346 8.69978 17.7312 8.50548C17.7277 8.31118 17.649 8.12579 17.5116 7.98838C17.3742 7.85097 17.1888 7.77225 16.9945 7.76883C16.8002 7.7654 16.6122 7.83752 16.47 7.97Z" fill="black"/>
</svg>
