<svg width="16" height="16" viewBox="0 0 16 16" fill="none" xmlns="http://www.w3.org/2000/svg">
<path d="M12 2C12.5304 2 13.0391 2.21071 13.4142 2.58579C13.7893 2.96086 14 3.46957 14 4V12C14 12.5304 13.7893 13.0391 13.4142 13.4142C13.0391 13.7893 12.5304 14 12 14H4C3.46957 14 2.96086 13.7893 2.58579 13.4142C2.21071 13.0391 2 12.5304 2 12V4C2 3.46957 2.21071 2.96086 2.58579 2.58579C2.96086 2.21071 3.46957 2 4 2H12ZM10.98 5.31333L6.66667 9.62667L5.02 7.98C4.92522 7.89168 4.79985 7.8436 4.67032 7.84588C4.54078 7.84817 4.41719 7.90064 4.32559 7.99225C4.23398 8.08386 4.1815 8.20745 4.17922 8.33699C4.17693 8.46652 4.22501 8.59188 4.31333 8.68667L6.31333 10.6867C6.40708 10.7803 6.53417 10.8329 6.66667 10.8329C6.79917 10.8329 6.92625 10.7803 7.02 10.6867L11.6867 6.02C11.775 5.92522 11.8231 5.79985 11.8208 5.67032C11.8185 5.54078 11.766 5.41719 11.6744 5.32559C11.5828 5.23398 11.4592 5.1815 11.3297 5.17922C11.2001 5.17693 11.0748 5.22501 10.98 5.31333Z" fill="#FEDF60"/>
</svg>
