<svg width="24" height="24" viewBox="0 0 24 24" fill="none" xmlns="http://www.w3.org/2000/svg">
<path fill-rule="evenodd" clip-rule="evenodd" d="M5.70558 15.2944C5.77058 15.3596 5.8478 15.4113 5.93281 15.4466C6.01782 15.4818 6.10896 15.5 6.201 15.5C6.29304 15.5 6.38418 15.4818 6.46919 15.4466C6.55421 15.4113 6.63142 15.3596 6.69642 15.2944L11.799 10.1904L16.9016 15.2944C17.033 15.4258 17.2112 15.4996 17.397 15.4996C17.5828 15.4996 17.761 15.4258 17.8924 15.2944C18.0238 15.163 18.0976 14.9848 18.0976 14.799C18.0976 14.6132 18.0238 14.435 17.8924 14.3036L12.2944 8.70558C12.2294 8.64041 12.1522 8.58871 12.0672 8.55343C11.9822 8.51816 11.891 8.5 11.799 8.5C11.707 8.5 11.6158 8.51816 11.5308 8.55343C11.4458 8.58871 11.3686 8.64041 11.3036 8.70558L5.70558 14.3036C5.64041 14.3686 5.58871 14.4458 5.55343 14.5308C5.51816 14.6158 5.5 14.707 5.5 14.799C5.5 14.891 5.51816 14.9822 5.55343 15.0672C5.58871 15.1522 5.64041 15.2294 5.70558 15.2944Z" fill="black"/>
</svg>
