<svg width="20" height="20" viewBox="0 0 20 20" fill="none" xmlns="http://www.w3.org/2000/svg">
<path fill-rule="evenodd" clip-rule="evenodd" d="M14.3022 4.60206C14.4476 4.4567 14.6447 4.37504 14.8503 4.37504C15.0559 4.37504 15.253 4.4567 15.3984 4.60206C15.5437 4.74741 15.6254 4.94456 15.6254 5.15013C15.6254 5.35569 15.5437 5.55284 15.3984 5.69819L9.69681 11.3998L8.23529 11.7651L8.60067 10.3036L14.3022 4.60206ZM14.8503 3.33337C14.3685 3.33337 13.9064 3.52478 13.5657 3.86549L7.76209 9.66906C7.69534 9.73581 7.64799 9.81944 7.62509 9.91102L7.01419 12.3546C6.96982 12.5321 7.02183 12.7199 7.15119 12.8492C7.28056 12.9786 7.46831 13.0306 7.6458 12.9862L10.0894 12.3753C10.181 12.3524 10.2646 12.3051 10.3314 12.2383L16.1349 6.43476C16.4756 6.09406 16.667 5.63196 16.667 5.15013C16.667 4.66829 16.4756 4.2062 16.1349 3.86549C15.7942 3.52478 15.3321 3.33337 14.8503 3.33337ZM5.07613 4.63011C4.61396 4.63011 4.17071 4.81371 3.8439 5.14051C3.51709 5.46732 3.3335 5.91057 3.3335 6.37275V14.9254C3.3335 15.3875 3.51709 15.8308 3.8439 16.1576C4.17071 16.4844 4.61396 16.668 5.07613 16.668H13.6288C14.0909 16.668 14.5342 16.4844 14.861 16.1576C15.1878 15.8308 15.3714 15.3875 15.3714 14.9254V10.6491C15.3714 10.3614 15.1382 10.1282 14.8506 10.1282C14.5629 10.1282 14.3297 10.3614 14.3297 10.6491V14.9254C14.3297 15.1113 14.2559 15.2896 14.1244 15.421C13.993 15.5525 13.8147 15.6263 13.6288 15.6263H5.07613C4.89022 15.6263 4.71193 15.5525 4.58047 15.421C4.44901 15.2896 4.37516 15.1113 4.37516 14.9254V6.37275C4.37516 6.18684 4.44901 6.00854 4.58047 5.87708C4.71193 5.74563 4.89022 5.67178 5.07613 5.67178H9.35245C9.64009 5.67178 9.87328 5.43859 9.87328 5.15094C9.87328 4.86329 9.64009 4.63011 9.35245 4.63011H5.07613Z" fill="#B5B5C8"/>
</svg>
