<svg width="24" height="24" viewBox="0 0 24 24" fill="none" xmlns="http://www.w3.org/2000/svg">
<path fill-rule="evenodd" clip-rule="evenodd" d="M5.70558 8.70558C5.77058 8.64041 5.8478 8.58871 5.93281 8.55343C6.01782 8.51816 6.10896 8.5 6.201 8.5C6.29304 8.5 6.38418 8.51816 6.46919 8.55343C6.55421 8.58871 6.63142 8.64041 6.69642 8.70558L11.799 13.8096L16.9016 8.70558C17.033 8.57418 17.2112 8.50037 17.397 8.50037C17.5828 8.50037 17.761 8.57418 17.8924 8.70558C18.0238 8.83697 18.0976 9.01518 18.0976 9.201C18.0976 9.38682 18.0238 9.56503 17.8924 9.69642L12.2944 15.2944C12.2294 15.3596 12.1522 15.4113 12.0672 15.4466C11.9822 15.4818 11.891 15.5 11.799 15.5C11.707 15.5 11.6158 15.4818 11.5308 15.4466C11.4458 15.4113 11.3686 15.3596 11.3036 15.2944L5.70558 9.69642C5.64041 9.63142 5.58871 9.5542 5.55343 9.46919C5.51816 9.38418 5.5 9.29304 5.5 9.201C5.5 9.10896 5.51816 9.01782 5.55343 8.93281C5.58871 8.8478 5.64041 8.77058 5.70558 8.70558Z" fill="black"/>
</svg>
