<svg width="20" height="20" viewBox="0 0 20 20" fill="none" xmlns="http://www.w3.org/2000/svg">
<path fill-rule="evenodd" clip-rule="evenodd" d="M10.0003 1.66656C10.4424 1.66656 10.8663 1.84216 11.1789 2.15472C11.4914 2.46728 11.667 2.8912 11.667 3.33323C11.667 3.77526 11.4914 4.19918 11.1789 4.51174C10.8663 4.8243 10.4424 4.9999 10.0003 4.9999C9.55832 4.9999 9.1344 4.8243 8.82183 4.51174C8.50927 4.19918 8.33368 3.77526 8.33368 3.33323C8.33368 2.8912 8.50927 2.46728 8.82183 2.15472C9.1344 1.84216 9.55832 1.66656 10.0003 1.66656Z" fill="#B5B5C8"/>
<path fill-rule="evenodd" clip-rule="evenodd" d="M10.0003 8.33313C10.4424 8.33313 10.8663 8.50873 11.1789 8.82129C11.4914 9.13385 11.667 9.55777 11.667 9.9998C11.667 10.4418 11.4914 10.8657 11.1789 11.1783C10.8663 11.4909 10.4424 11.6665 10.0003 11.6665C9.55832 11.6665 9.1344 11.4909 8.82183 11.1783C8.50927 10.8657 8.33368 10.4418 8.33368 9.9998C8.33368 9.55777 8.50927 9.13385 8.82183 8.82129C9.1344 8.50873 9.55832 8.33313 10.0003 8.33313Z" fill="#B5B5C8"/>
<path fill-rule="evenodd" clip-rule="evenodd" d="M10.0003 15C10.4424 15 10.8663 15.1756 11.1789 15.4882C11.4914 15.8007 11.667 16.2246 11.667 16.6667C11.667 17.1087 11.4914 17.5326 11.1789 17.8452C10.8663 18.1577 10.4424 18.3333 10.0003 18.3333C9.55832 18.3333 9.1344 18.1577 8.82183 17.8452C8.50927 17.5326 8.33368 17.1087 8.33368 16.6667C8.33368 16.2246 8.50927 15.8007 8.82183 15.4882C9.1344 15.1756 9.55832 15 10.0003 15Z" fill="#B5B5C8"/>
</svg>
