<svg width="28" height="28" viewBox="0 0 28 28" fill="none" xmlns="http://www.w3.org/2000/svg">
<path d="M24.5522 13.024H27.3306C27.2458 11.6013 26.9325 10.2016 26.4026 8.87866L23.9632 10.2873C24.2744 11.1527 24.4786 12.0696 24.5522 13.024ZM19.7137 1.80357C18.3636 1.16053 16.9139 0.751837 15.4267 0.594987V3.40252C16.4257 3.53291 17.4008 3.80662 18.3217 4.21519L19.7137 1.80357ZM22.6879 7.81455L25.1065 6.41843C24.2817 5.20198 23.2623 4.12956 22.0892 3.24415L20.6917 5.6641C21.4536 6.28484 22.1255 7.0086 22.6879 7.81455ZM14.0361 24.4138C11.236 24.4138 8.55063 23.3015 6.57067 21.3216C4.5907 19.3416 3.47837 16.6562 3.47837 13.8561C3.47837 8.49664 7.47504 4.08183 12.6483 3.40113V0.593597C5.93444 1.28819 0.700012 6.9602 0.700012 13.8561C0.69983 15.6076 1.04469 17.3421 1.7149 18.9603C2.38511 20.5786 3.36753 22.049 4.60607 23.2875C5.84461 24.5261 7.315 25.5085 8.93326 26.1787C10.5515 26.8489 12.286 27.1938 14.0375 27.1936C20.7389 27.1936 26.272 22.244 27.2153 15.8023H24.4077C23.4937 20.702 19.2011 24.4138 14.0361 24.4138Z" fill="#DDDDDD"/>
</svg>
