<svg width="24" height="24" viewBox="0 0 24 24" fill="none" xmlns="http://www.w3.org/2000/svg">
<path d="M21.0448 11.1634H23.4263C23.3536 9.944 23.0851 8.74426 22.6309 7.61027L20.54 8.81767C20.8067 9.55949 20.9817 10.3454 21.0448 11.1634ZM16.8976 1.54591C15.7403 0.99473 14.4977 0.644423 13.223 0.50998V2.91643C14.0793 3.0282 14.915 3.2628 15.7044 3.61301L16.8976 1.54591ZM19.4469 6.69818L21.5199 5.5015C20.813 4.45883 19.9392 3.53961 18.9337 2.78069L17.7358 4.85493C18.3889 5.38699 18.9648 6.00736 19.4469 6.69818ZM12.0311 20.9261C9.63098 20.9261 7.3292 19.9727 5.63209 18.2756C3.93498 16.5785 2.98155 14.2767 2.98155 11.8766C2.98155 7.28282 6.40726 3.4987 10.8415 2.91524V0.508789C5.08675 1.10415 0.600098 5.96588 0.600098 11.8766C0.599941 13.378 0.895536 14.8646 1.47 16.2517C2.04446 17.6388 2.88654 18.8991 3.94815 19.9607C5.00975 21.0223 6.27009 21.8644 7.65717 22.4389C9.04425 23.0133 10.5309 23.3089 12.0322 23.3088C17.7763 23.3088 22.519 19.0662 23.3275 13.5448H20.921C20.1375 17.7445 16.4582 20.9261 12.0311 20.9261Z" fill="#DDDDDD"/>
</svg>
