<svg width="20" height="20" viewBox="0 0 20 20" fill="none" xmlns="http://www.w3.org/2000/svg">
<path d="M5.48012 1.00054C5.53342 0.947376 5.59668 0.905234 5.66628 0.876529C5.73588 0.847824 5.81046 0.833118 5.88574 0.833253H13.9066C14.0585 0.833253 14.2042 0.893614 14.3117 1.00106C14.4191 1.1085 14.4795 1.25422 14.4795 1.40617C14.4795 2.18534 14.0876 2.75138 13.7393 3.10086C13.5949 3.24409 13.4528 3.35752 13.3337 3.44232V8.5195L13.423 8.5745C13.6556 8.72002 13.9685 8.93429 14.2836 9.21044C14.892 9.74211 15.6253 10.6038 15.6253 11.7187C15.6253 11.8706 15.565 12.0163 15.4575 12.1238C15.3501 12.2312 15.2044 12.2916 15.0524 12.2916H10.4691V17.4478C10.4691 17.7641 10.2124 19.1666 9.89616 19.1666C9.57991 19.1666 9.32324 17.7641 9.32324 17.4478V12.2916H4.73991C4.58796 12.2916 4.44224 12.2312 4.3348 12.1238C4.22735 12.0163 4.16699 11.8706 4.16699 11.7187C4.16699 10.6038 4.90033 9.74211 5.50762 9.21044C5.80404 8.95304 6.12225 8.72187 6.45866 8.5195V3.44232C6.31416 3.34001 6.17848 3.22579 6.05303 3.10086C5.7047 2.75138 5.31283 2.18419 5.31283 1.40617C5.31269 1.33088 5.3274 1.25631 5.3561 1.18671C5.38481 1.11711 5.42695 1.05385 5.48012 1.00054Z" fill="white"/>
</svg>
