<svg width="20" height="20" viewBox="0 0 20 20" fill="none" xmlns="http://www.w3.org/2000/svg">
<path d="M11.831 1.66675C11.9094 1.66661 11.9871 1.68192 12.0595 1.71181C12.132 1.7417 12.1979 1.78558 12.2534 1.84095L18.1595 7.74702C18.2713 7.85889 18.3341 8.01061 18.3341 8.1688C18.3341 8.32699 18.2713 8.4787 18.1595 8.59057C17.5868 9.16328 16.8804 9.29214 16.3662 9.29214C16.155 9.29214 15.9665 9.27067 15.8173 9.24561L12.078 12.9849C12.1764 13.3815 12.2403 13.7859 12.2689 14.1936C12.3238 15.0312 12.2307 16.2064 11.4098 17.0273C11.298 17.1391 11.1462 17.202 10.9881 17.202C10.8299 17.202 10.6782 17.1391 10.5663 17.0273L7.19087 13.6531L3.39428 17.4497C3.16162 17.6823 1.93984 18.5259 1.70718 18.2932C1.47451 18.0606 2.31807 16.8376 2.55073 16.6061L6.34732 12.8095L2.9731 9.43413C2.86126 9.32225 2.79843 9.17054 2.79843 9.01235C2.79843 8.85416 2.86126 8.70245 2.9731 8.59057C3.79399 7.76969 4.96923 7.67543 5.80682 7.73151C6.21447 7.76007 6.61887 7.82395 7.01548 7.92241L10.7548 4.18429C10.7236 4.00259 10.7076 3.8186 10.7071 3.63425C10.7071 3.12119 10.8359 2.41485 11.4098 1.84095C11.5216 1.72943 11.6731 1.66678 11.831 1.66675ZM11.9766 4.18667V4.18429V4.18667ZM11.9766 4.18429V4.18667C12.011 4.29163 12.0157 4.4041 11.99 4.51154C11.9643 4.61898 11.9092 4.71717 11.831 4.79518L7.61325 9.01175C7.53488 9.08979 7.43636 9.1445 7.3287 9.16978C7.22103 9.19507 7.10846 9.18992 7.00355 9.15493H7.00116L6.98446 9.15016C6.87095 9.11615 6.75634 9.08591 6.64083 9.05948C6.34068 8.98946 6.03549 8.94319 5.72808 8.92107C5.22457 8.88767 4.73061 8.93062 4.32613 9.10005L10.9004 15.6731C11.0686 15.2674 11.1115 14.7746 11.0781 14.2711C11.0477 13.8449 10.9709 13.4232 10.8491 13.0136L10.8443 12.9981V12.9969C10.8091 12.8918 10.8038 12.779 10.8291 12.6711C10.8544 12.5632 10.9092 12.4644 10.9875 12.386L15.2064 8.1682C15.2877 8.08646 15.3909 8.03 15.5035 8.00565C15.6161 7.9813 15.7334 7.9901 15.8412 8.03099L15.9557 8.05724C16.0595 8.07752 16.2039 8.0978 16.3662 8.0978C16.5022 8.0978 16.6406 8.08468 16.7754 8.05008L11.9491 3.225C11.9145 3.35982 11.9014 3.49942 11.9014 3.63425C11.902 3.81964 11.9269 4.00416 11.9754 4.18309L11.9766 4.18429Z" fill="#B5B5C8"/>
</svg>
