<svg width="20" height="20" viewBox="0 0 20 20" fill="none" xmlns="http://www.w3.org/2000/svg">
<path d="M5.48012 1.00054C5.53342 0.947376 5.59668 0.905234 5.66628 0.876529C5.73588 0.847824 5.81046 0.833118 5.88574 0.833253H13.9066C14.0585 0.833253 14.2042 0.893614 14.3117 1.00106C14.4191 1.1085 14.4795 1.25422 14.4795 1.40617C14.4795 2.18534 14.0876 2.75138 13.7393 3.10086C13.5949 3.24409 13.4528 3.35752 13.3337 3.44232V8.5195L13.423 8.5745C13.6556 8.72002 13.9685 8.93429 14.2836 9.21044C14.892 9.74211 15.6253 10.6038 15.6253 11.7187C15.6253 11.8706 15.565 12.0163 15.4575 12.1238C15.3501 12.2312 15.2044 12.2916 15.0524 12.2916H10.4691V17.4478C10.4691 17.7641 10.2124 19.1666 9.89616 19.1666C9.57991 19.1666 9.32324 17.7641 9.32324 17.4478V12.2916H4.73991C4.58796 12.2916 4.44224 12.2312 4.3348 12.1238C4.22735 12.0163 4.16699 11.8706 4.16699 11.7187C4.16699 10.6038 4.90033 9.74211 5.50762 9.21044C5.80404 8.95304 6.12225 8.72187 6.45866 8.5195V3.44232C6.31416 3.34001 6.17848 3.22579 6.05303 3.10086C5.7047 2.75138 5.31283 2.18419 5.31283 1.40617C5.31269 1.33088 5.3274 1.25631 5.3561 1.18671C5.38481 1.11711 5.42695 1.05385 5.48012 1.00054ZM7.29053 2.61388L7.28824 2.61273L7.29053 2.61388ZM7.28824 2.61273L7.29053 2.61388C7.38498 2.66173 7.46431 2.73482 7.51973 2.82503C7.57515 2.91524 7.60449 3.01905 7.60449 3.12492V8.85409C7.60449 8.96039 7.57491 9.06461 7.51905 9.15506C7.4632 9.24552 7.38329 9.31865 7.28824 9.36627H7.28595L7.2722 9.37429L7.21033 9.40867C6.8725 9.59711 6.55496 9.81981 6.26272 10.0733C5.89835 10.3918 5.59241 10.7562 5.43199 11.1458H14.3603C14.1999 10.7562 13.894 10.3918 13.5296 10.0733C13.2196 9.80417 12.8811 9.56979 12.5201 9.37429L12.5064 9.36742H12.5041C12.4089 9.31971 12.3288 9.2464 12.273 9.15572C12.2171 9.06504 12.1876 8.96059 12.1878 8.85409V3.12492C12.1874 3.01413 12.2191 2.90559 12.2791 2.81244C12.3391 2.7193 12.4248 2.64555 12.5258 2.60013C12.6724 2.51384 12.8075 2.40952 12.928 2.28961C13.0197 2.19794 13.1056 2.09482 13.1732 1.97909H6.61908C6.68783 2.09367 6.77147 2.19794 6.86428 2.28961C6.99086 2.4154 7.1334 2.52403 7.28824 2.61273Z" fill="white"/>
</svg>
