<svg width="16" height="16" viewBox="0 0 16 16" fill="none" xmlns="http://www.w3.org/2000/svg">
<path fill-rule="evenodd" clip-rule="evenodd" d="M8.00004 14.6668C11.682 14.6668 14.6667 11.6822 14.6667 8.00016C14.6667 4.31816 11.682 1.3335 8.00004 1.3335C4.31804 1.3335 1.33337 4.31816 1.33337 8.00016C1.33337 11.6822 4.31804 14.6668 8.00004 14.6668ZM11.7713 11.7714C12.7715 10.7712 13.3334 9.41465 13.3334 8.00016C13.3334 6.58567 12.7715 5.22912 11.7713 4.22893C10.7711 3.22873 9.41453 2.66683 8.00004 2.66683C6.58555 2.66683 5.229 3.22873 4.2288 4.22893C3.22861 5.22912 2.66671 6.58567 2.66671 8.00016C2.66671 9.41465 3.22861 10.7712 4.2288 11.7714C5.229 12.7716 6.58555 13.3335 8.00004 13.3335C9.41453 13.3335 10.7711 12.7716 11.7713 11.7714ZM9.88566 9.88578C9.38556 10.3859 8.70728 10.6668 8.00004 10.6668C7.2928 10.6668 6.61452 10.3859 6.11442 9.88578C5.61433 9.38568 5.33337 8.70741 5.33337 8.00016C5.33337 7.29292 5.61433 6.61464 6.11442 6.11454C6.61452 5.61445 7.2928 5.3335 8.00004 5.3335C8.70728 5.3335 9.38556 5.61445 9.88566 6.11454C10.3858 6.61464 10.6667 7.29292 10.6667 8.00016C10.6667 8.70741 10.3858 9.38568 9.88566 9.88578Z" fill="#FEDF60"/>
</svg>
