<svg width="24" height="24" viewBox="0 0 24 24" fill="none" xmlns="http://www.w3.org/2000/svg">
<path d="M2 19.7778H22V22H2V19.7778ZM5.33333 16.4444C6.55556 16.4444 7.55556 15.4444 7.55556 14.2222C7.55556 13.6667 7.33333 13.1111 7 12.7778L8.44445 9.77778H8.66667C9.22222 9.77778 9.77778 9.55556 10.1111 9.22222L13.1111 10.7778V10.8889C13.1111 12.1111 14.1111 13.1111 15.3333 13.1111C16.5556 13.1111 17.5556 12.1111 17.5556 10.8889C17.5556 10.3333 17.3333 9.88889 17 9.44444L18.4444 6.44444H18.6667C19.8889 6.44444 20.8889 5.44444 20.8889 4.22222C20.8889 3 19.8889 2 18.6667 2C17.4444 2 16.4444 3 16.4444 4.22222C16.4444 4.77778 16.6667 5.33333 17 5.66667L15.5556 8.66667H15.3333C14.7778 8.66667 14.2222 8.88889 13.8889 9.22222L10.8889 7.77778V7.55556C10.8889 6.33333 9.88889 5.33333 8.66667 5.33333C7.44444 5.33333 6.44444 6.33333 6.44444 7.55556C6.44444 8.11111 6.66667 8.66667 7 9L5.55556 12H5.33333C4.11111 12 3.11111 13 3.11111 14.2222C3.11111 15.4444 4.11111 16.4444 5.33333 16.4444Z" fill="#DDDDDD"/>
</svg>
