<svg width="28" height="28" viewBox="0 0 28 28" fill="none" xmlns="http://www.w3.org/2000/svg">
<path d="M2.33331 23.0741H25.6666V25.6667H2.33331V23.0741ZM6.2222 19.1852C7.64813 19.1852 8.81479 18.0185 8.81479 16.5926C8.81479 15.9445 8.55554 15.2963 8.16665 14.9074L9.85183 11.4074H10.1111C10.7592 11.4074 11.4074 11.1482 11.7963 10.7593L15.2963 12.5741V12.7037C15.2963 14.1296 16.4629 15.2963 17.8889 15.2963C19.3148 15.2963 20.4815 14.1296 20.4815 12.7037C20.4815 12.0556 20.2222 11.537 19.8333 11.0185L21.5185 7.51853H21.7778C23.2037 7.51853 24.3704 6.35186 24.3704 4.92594C24.3704 3.50001 23.2037 2.33334 21.7778 2.33334C20.3518 2.33334 19.1852 3.50001 19.1852 4.92594C19.1852 5.57408 19.4444 6.22223 19.8333 6.61112L18.1481 10.1111H17.8889C17.2407 10.1111 16.5926 10.3704 16.2037 10.7593L12.7037 9.07408V8.81483C12.7037 7.3889 11.537 6.22223 10.1111 6.22223C8.68516 6.22223 7.5185 7.3889 7.5185 8.81483C7.5185 9.46297 7.77776 10.1111 8.16665 10.5L6.48146 14H6.2222C4.79628 14 3.62961 15.1667 3.62961 16.5926C3.62961 18.0185 4.79628 19.1852 6.2222 19.1852Z" fill="#DDDDDD"/>
</svg>
