<svg width="28" height="28" viewBox="0 0 28 28" fill="none" xmlns="http://www.w3.org/2000/svg">
<g clip-path="url(#clip0_1385_1407)">
<path d="M0.011955 7.54873C1.18567 6.7768 2.37996 6.04283 3.59955 5.34524C4.81756 4.64923 6.05771 3.98328 7.32793 3.36795C8.59497 2.74945 9.89366 2.18157 11.2271 1.68013C12.5606 1.18027 13.9321 0.745268 15.351 0.435229C16.0596 0.277046 16.7825 0.153663 17.5181 0.074571C18.2536 -0.00293886 19.0018 -0.0456484 19.7595 -0.0124299C20.5172 0.0192068 21.2844 0.107789 22.0453 0.296028C22.8046 0.485848 23.5559 0.778487 24.244 1.18976C24.9321 1.60262 25.5554 2.12621 26.0679 2.72889C26.5804 3.33315 26.979 4.01017 27.278 4.70776C27.5722 5.40851 27.7699 6.13141 27.8791 6.85431C27.9882 7.57879 28.0214 8.30485 27.9629 9.02458C27.9613 9.04831 27.9408 9.06571 27.917 9.06413C27.9012 9.06255 27.8886 9.05306 27.8822 9.0404C27.5738 8.38869 27.2843 7.75437 26.9648 7.15169C26.6468 6.54901 26.3083 5.97639 25.9255 5.45755C25.549 4.93554 25.1314 4.4689 24.679 4.06395C24.2219 3.66375 23.7284 3.33157 23.2 3.05949C22.1386 2.53274 20.9333 2.23694 19.6583 2.17999C19.0224 2.15152 18.3739 2.16101 17.7206 2.21479C17.0673 2.27016 16.4092 2.36032 15.7512 2.47263C14.4351 2.70674 13.1174 3.03576 11.8061 3.42015C10.4948 3.80453 9.18816 4.24112 7.88473 4.70302C5.27945 5.62997 2.69158 6.67398 0.0483371 7.62308C0.0261915 7.63099 0.00246403 7.61992 -0.00544513 7.59777C-0.0117725 7.58037 -0.0038633 7.55981 0.011955 7.54873Z" fill="#7DC242"/>
<path d="M8.52168 12.9611H12.6144V15.9562H8.52168V23.0043C8.52168 23.5711 8.68032 23.9894 8.99889 24.2594C9.31746 24.5293 9.73709 24.6649 10.2604 24.6649C10.9576 24.6649 11.7943 24.5127 12.7705 24.2069V27.1751C11.7764 27.6203 10.5559 27.8416 9.10892 27.8416C7.51352 27.8416 6.35184 27.4386 5.62388 26.6326C4.89591 25.8266 4.53256 24.6163 4.53256 23.0043V15.9562H2.625V14.2699L4.8217 12.9355" fill="white"/>
<path d="M8.52171 6.87384V11.8174H4.53387V9.6066L6.51564 8.80571L8.52171 6.87384Z" fill="#7DC242"/>
<path d="M25.375 23.3805C25.375 24.8799 24.8543 26.0224 23.8128 26.8067C22.7714 27.5909 21.2131 27.9837 19.138 27.9837C18.0748 27.9837 17.1677 27.9121 16.418 27.7675C15.6683 27.6229 14.9659 27.4118 14.3121 27.1329V23.8372C15.0529 24.1865 15.8883 24.4782 16.8159 24.7136C17.7447 24.949 18.561 25.0667 19.2672 25.0667C20.7142 25.0667 21.4383 24.6483 21.4383 23.8116C21.4383 23.4982 21.3424 23.2423 21.1504 23.0466C20.9585 22.8508 20.6272 22.6282 20.1564 22.38C19.6856 22.1318 19.0574 21.8414 18.2731 21.51C17.1485 21.0392 16.3221 20.6029 15.7949 20.2025C15.2678 19.802 14.884 19.3415 14.6448 18.8233C14.4055 18.3052 14.2853 17.6655 14.2853 16.9081C14.2853 15.6095 14.7894 14.6039 15.7962 13.8939C16.8031 13.1838 18.2309 12.8281 20.0783 12.8281C21.8388 12.8281 23.5519 13.2119 25.2176 13.9783L24.015 16.8556C23.2832 16.5422 22.5987 16.285 21.9616 16.0842C21.3257 15.8833 20.6758 15.7835 20.0131 15.7835C18.836 15.7835 18.2475 16.1021 18.2475 16.7379C18.2475 17.0949 18.4369 17.4045 18.8169 17.6668C19.1955 17.9277 20.0259 18.3167 21.3078 18.831C22.4503 19.2929 23.287 19.724 23.818 20.1257C24.3502 20.5262 24.7417 20.9893 24.995 21.5113C25.2496 22.0333 25.375 22.6563 25.375 23.3805Z" fill="white"/>
</g>
<defs>
<clipPath id="clip0_1385_1407">
<rect width="28" height="28" fill="white"/>
</clipPath>
</defs>
</svg>
