<svg width="14" height="14" viewBox="0 0 14 14" fill="none" xmlns="http://www.w3.org/2000/svg">
<path fill-rule="evenodd" clip-rule="evenodd" d="M7.00001 12.3335C8.4145 12.3335 9.77105 11.7716 10.7712 10.7714C11.7714 9.77121 12.3333 8.41465 12.3333 7.00016C12.3333 5.58568 11.7714 4.22912 10.7712 3.22893C9.77105 2.22873 8.4145 1.66683 7.00001 1.66683C5.58552 1.66683 4.22897 2.22873 3.22877 3.22893C2.22858 4.22912 1.66668 5.58568 1.66668 7.00016C1.66668 8.41465 2.22858 9.77121 3.22877 10.7714C4.22897 11.7716 5.58552 12.3335 7.00001 12.3335ZM7.00001 13.6668C10.682 13.6668 13.6667 10.6822 13.6667 7.00016C13.6667 3.31816 10.682 0.333496 7.00001 0.333496C3.31801 0.333496 0.333344 3.31816 0.333344 7.00016C0.333344 10.6822 3.31801 13.6668 7.00001 13.6668Z" fill="#B5B5C8"/>
</svg>
