<svg width="191" height="48" viewBox="0 0 191 48" fill="none" xmlns="http://www.w3.org/2000/svg">
<g clip-path="url(#clip0_773_3764)">
<path d="M112.767 41.2792C111.529 40.8899 110.562 40.3987 109.865 39.8089L110.88 38.0379C111.577 38.5866 112.455 39.0335 113.513 39.3818C114.571 39.7301 115.67 39.9042 116.812 39.9042C118.335 39.9042 119.46 39.6676 120.19 39.1929C120.92 38.7181 121.284 38.0494 121.284 37.1853C121.284 36.5742 121.083 36.0945 120.681 35.7462C120.279 35.3979 119.772 35.1351 119.159 34.956C118.546 34.7769 117.732 34.6028 116.717 34.4336C115.364 34.1806 114.274 33.9227 113.449 33.6582C112.625 33.3953 111.921 32.9468 111.34 32.3143C110.758 31.6819 110.468 30.8079 110.468 29.6891C110.468 28.2976 111.05 27.1592 112.213 26.2737C113.376 25.3882 114.993 24.9463 117.066 24.9463C118.144 24.9463 119.223 25.0892 120.301 25.3734C121.378 25.6576 122.267 26.0322 122.965 26.4955L121.981 28.2976C120.607 27.3497 118.968 26.875 117.064 26.875C115.626 26.875 114.543 27.128 113.813 27.6339C113.083 28.1399 112.719 28.8036 112.719 29.6267C112.719 30.2592 112.925 30.7652 113.337 31.1447C113.749 31.5242 114.261 31.8034 114.876 31.9825C115.489 32.1616 116.334 32.3456 117.414 32.5361C118.745 32.7891 119.813 33.0421 120.617 33.2951C121.421 33.5481 122.108 33.9802 122.679 34.5913C123.249 35.2024 123.535 36.0452 123.535 37.1213C123.535 38.5768 122.927 39.7301 121.711 40.5843C120.495 41.4386 118.809 41.8657 116.652 41.8657C115.298 41.8657 114.003 41.6702 112.767 41.2792Z" fill="#21241E"/>
<path d="M127.658 20.9624C127.342 20.647 127.182 20.2675 127.182 19.824C127.182 19.4017 127.34 19.0338 127.658 18.7167C127.976 18.3996 128.367 18.2419 128.832 18.2419C129.296 18.2419 129.689 18.3947 130.005 18.7003C130.321 19.0058 130.481 19.3705 130.481 19.7911C130.481 20.2544 130.323 20.6454 130.005 20.9608C129.687 21.2778 129.296 21.4356 128.832 21.4356C128.367 21.4356 127.976 21.2779 127.658 20.9624ZM127.69 25.0728H129.942V41.7064H127.69V25.0728Z" fill="#21241E"/>
<path d="M151.671 25.0728V39.6824C151.671 42.5081 150.977 44.5994 149.593 45.9596C148.207 47.3199 146.119 48 143.328 48C141.784 48 140.319 47.7733 138.935 47.3199C137.549 46.8665 136.423 46.2389 135.556 45.4389L136.698 43.732C137.503 44.4482 138.48 45.0068 139.633 45.4077C140.785 45.8085 141.996 46.0089 143.265 46.0089C145.379 46.0089 146.933 45.5194 147.929 44.5386C148.922 43.5578 149.42 42.0349 149.42 39.9683V37.849C148.721 38.9037 147.807 39.7038 146.676 40.2525C145.544 40.8012 144.292 41.0739 142.917 41.0739C141.352 41.0739 139.93 40.7322 138.651 40.0455C137.371 39.3604 136.367 38.401 135.637 37.1673C134.907 35.9335 134.543 34.5371 134.543 32.9781C134.543 31.4174 134.907 30.0259 135.637 28.8036C136.367 27.5814 137.366 26.6318 138.635 25.9583C139.903 25.2831 141.331 24.9463 142.917 24.9463C144.335 24.9463 145.613 25.2305 146.755 25.8006C147.897 26.3706 148.817 27.192 149.515 28.2664V25.0728H151.671V25.0728ZM146.406 38.3074C147.378 37.7915 148.135 37.0687 148.673 36.1405C149.212 35.2123 149.483 34.1592 149.483 32.9781C149.483 31.7969 149.212 30.7487 148.673 29.832C148.135 28.9153 147.383 28.1991 146.421 27.6816C145.458 27.1657 144.364 26.9062 143.138 26.9062C141.934 26.9062 140.849 27.1592 139.887 27.6652C138.925 28.1711 138.175 28.8874 137.634 29.8156C137.096 30.7438 136.825 31.7969 136.825 32.9781C136.825 34.1592 137.096 35.2123 137.634 36.1405C138.173 37.0687 138.925 37.7899 139.887 38.3074C140.849 38.8249 141.934 39.0828 143.138 39.0828C144.343 39.0828 145.432 38.8249 146.406 38.3074Z" fill="#21241E"/>
<path d="M171.48 26.7649C172.718 27.9773 173.336 29.7433 173.336 32.0613V41.7064H171.083V32.2831C171.083 30.5549 170.65 29.2373 169.783 28.3305C168.916 27.4237 167.678 26.9702 166.072 26.9702C164.274 26.9702 162.852 27.5025 161.805 28.5671C160.759 29.6316 160.235 31.1019 160.235 32.978V41.7064H157.982V18.2419H160.235V27.9822C160.848 27.0129 161.695 26.2638 162.773 25.7365C163.85 25.2091 165.088 24.9463 166.484 24.9463C168.578 24.9463 170.242 25.5525 171.48 26.7649Z" fill="#21241E"/>
<path d="M188.244 40.6944C187.82 41.0739 187.296 41.3646 186.673 41.5634C186.049 41.7638 185.399 41.8641 184.722 41.8641C183.157 41.8641 181.952 41.4419 181.107 40.5991C180.261 39.7563 179.838 38.5653 179.838 37.0259V26.9702H176.857V25.0728H179.838V21.4355H182.091V25.0728H187.166V26.9702H182.091V36.8994C182.091 37.8901 182.339 38.6441 182.835 39.16C183.331 39.6775 184.045 39.9354 184.976 39.9354C185.441 39.9354 185.891 39.8615 186.324 39.7136C186.757 39.5657 187.133 39.3555 187.449 39.0811L188.244 40.6944Z" fill="#21241E"/>
<path d="M110.987 19.6597C117.924 15.7103 125.007 12.0025 132.34 8.75624C136.004 7.12985 139.739 5.63652 143.553 4.32062C145.458 3.65856 147.391 3.06222 149.342 2.51187C151.293 1.96153 153.272 1.48839 155.275 1.09083L156.781 0.809906L158.297 0.563483L159.824 0.361416C160.337 0.307202 160.848 0.248061 161.36 0.200419C163.415 0.0164228 165.495 -0.0607899 167.586 0.0574934C169.675 0.174134 171.781 0.4452 173.849 0.984045C175.911 1.53603 177.941 2.32459 179.801 3.43678L180.49 3.8672C180.604 3.93948 180.721 4.00848 180.831 4.08734L181.161 4.32555L181.817 4.80197C182.029 4.96953 182.237 5.14367 182.446 5.31453C182.871 5.64802 183.26 6.02587 183.651 6.3955C183.85 6.57621 184.027 6.77992 184.213 6.97542L184.76 7.56519C186.167 9.18666 187.297 11.0036 188.176 12.8978C189.046 14.7985 189.672 16.7732 190.087 18.7692C190.501 20.7669 190.723 22.7827 190.75 24.7951C190.75 24.8329 190.72 24.8641 190.682 24.8641C190.651 24.8641 190.625 24.8444 190.616 24.8165C189.977 22.9108 189.326 21.0413 188.56 19.2424C187.795 17.4451 186.933 15.7136 185.912 14.1151C184.903 12.5101 183.735 11.0431 182.425 9.75343L181.917 9.28852C181.746 9.13573 181.586 8.97309 181.403 8.8351C181.044 8.55253 180.706 8.24532 180.329 7.9874L179.777 7.58655L179.202 7.21856L178.915 7.03456C178.818 6.97542 178.717 6.92285 178.62 6.86371L178.03 6.522C174.826 4.79868 171.157 3.90663 167.378 3.69799C165.49 3.59121 163.575 3.6142 161.657 3.76042C161.177 3.79656 160.698 3.84749 160.218 3.88856L158.78 4.05612L157.339 4.25326L155.901 4.48326C152.068 5.1486 148.258 6.10637 144.483 7.22513C140.707 8.34389 136.964 9.62365 133.243 10.9888C125.799 13.7209 118.451 16.8044 111.041 19.7845C111.005 19.7993 110.965 19.7812 110.95 19.7467C110.944 19.7122 110.957 19.6761 110.987 19.6597Z" fill="#7EC243"/>
<path d="M6.89465 24.6999H11.68V28.1909H6.89465V36.4066C6.89465 37.067 7.08086 37.555 7.45328 37.8704C7.8257 38.1858 8.31676 38.3435 8.92812 38.3435C9.74381 38.3435 10.7226 38.1661 11.863 37.8096V41.2694C10.7012 41.7869 9.27417 42.0464 7.58181 42.0464C5.71643 42.0464 4.35859 41.5766 3.50665 40.6369C2.65471 39.6972 2.22956 38.2877 2.22956 36.4066V28.1909H0V26.2244L2.56902 24.6703" fill="#21241E"/>
<path d="M6.89441 17.6045V23.3659H2.23096V20.7883L4.54785 19.8552L6.89441 17.6045Z" fill="#7EC243"/>
<path d="M24.8598 24.3795C25.4909 24.3795 26.0166 24.4255 26.4351 24.5175L26.0841 28.8775C25.7068 28.7757 25.2487 28.7248 24.7082 28.7248C23.2202 28.7248 22.0601 29.1059 21.2295 29.8682C20.399 30.6304 19.9838 31.6966 19.9838 33.0684V41.7408H15.3203V24.6998H18.8517L19.5405 27.5649H19.7695C20.3001 26.6104 21.0153 25.84 21.9183 25.2551C22.8197 24.6719 23.8002 24.3795 24.8598 24.3795Z" fill="#21241E"/>
<path d="M36.9697 42.0448C34.2178 42.0448 32.0673 41.2874 30.5183 39.7744C28.9693 38.2597 28.1948 36.1158 28.1948 33.3427C28.1948 30.4875 28.9116 28.2796 30.3436 26.7205C31.7756 25.1615 33.7564 24.3811 36.2842 24.3811C38.6999 24.3811 40.5801 25.0678 41.9265 26.4396C43.2711 27.8113 43.9451 29.7072 43.9451 32.1254V34.381H32.9209C32.972 35.7018 33.3642 36.7335 34.0975 37.4744C34.8308 38.2153 35.8607 38.5866 37.1856 38.5866C38.2155 38.5866 39.1877 38.4798 40.1056 38.2663C41.0234 38.0527 41.9808 37.7126 42.9794 37.2444V40.8422C42.1637 41.248 41.292 41.5503 40.3643 41.7491C39.4365 41.9478 38.3045 42.0448 36.9697 42.0448ZM36.3122 27.6865C35.3235 27.6865 34.549 27.9986 33.9887 28.6245C33.4284 29.2488 33.1071 30.1359 33.0247 31.2843H39.5684C39.5486 30.1359 39.247 29.2488 38.667 28.6245C38.0853 27.9986 37.3009 27.6865 36.3122 27.6865Z" fill="#21241E"/>
<path d="M63.5117 41.7408H58.8482V31.787C58.8482 30.5581 58.6291 29.6349 58.1907 29.0205C57.7524 28.406 57.0537 28.0988 56.0963 28.0988C54.7912 28.0988 53.8486 28.5325 53.2686 29.4016C52.6869 30.2707 52.3968 31.7114 52.3968 33.7222V41.7392H47.7334V24.6998H51.2961L51.9223 26.8799H52.1826C52.7017 26.0568 53.4185 25.4342 54.3314 25.012C55.2443 24.5898 56.2809 24.3795 57.4426 24.3795C59.4299 24.3795 60.9394 24.915 61.9676 25.9878C62.9975 27.0606 63.5117 28.6065 63.5117 30.6288V41.7408V41.7408Z" fill="#21241E"/>
<path d="M73.7235 42.0448C71.7148 42.0448 70.1378 41.2677 68.9909 39.712C67.844 38.1578 67.2705 36.0025 67.2705 33.2491C67.2705 30.4546 67.8539 28.2779 69.0205 26.7172C70.1872 25.1565 71.7955 24.3778 73.8438 24.3778C75.9943 24.3778 77.6356 25.2108 78.7676 26.8782H78.9209C78.6869 25.6083 78.5699 24.4748 78.5699 23.4792V18.0218H83.2482V41.7392H79.6707L78.7693 39.5296H78.5699C77.5103 41.2069 75.8954 42.0448 73.7235 42.0448ZM75.3599 38.3418C76.5529 38.3418 77.4263 37.9968 77.9816 37.3052C78.5369 36.6136 78.8402 35.4406 78.8912 33.7846V33.2819C78.8912 31.4535 78.6078 30.1425 78.0426 29.349C77.4774 28.5555 76.5562 28.1596 75.2824 28.1596C74.2426 28.1596 73.4352 28.5999 72.8584 29.4788C72.2833 30.3577 71.9949 31.6358 71.9949 33.3115C71.9949 34.9888 72.285 36.2456 72.8666 37.0834C73.4483 37.9229 74.2789 38.3418 75.3599 38.3418Z" fill="#21241E"/>
<path d="M100.052 36.6793C100.052 38.4273 99.4419 39.758 98.2241 40.673C97.0064 41.5881 95.1838 42.0448 92.7582 42.0448C91.514 42.0448 90.4545 41.961 89.5778 41.7934C88.7011 41.6258 87.8805 41.3794 87.1159 41.0541V37.2132C87.9827 37.619 88.9582 37.9607 90.0442 38.2351C91.1301 38.5094 92.0859 38.6474 92.9114 38.6474C94.6038 38.6474 95.4491 38.1595 95.4491 37.1837C95.4491 36.8173 95.3371 36.52 95.113 36.2916C94.8889 36.0632 94.5016 35.8037 93.9512 35.5145C93.4008 35.2254 92.6676 34.887 91.7497 34.5009C90.4347 33.9522 89.4691 33.4446 88.8528 32.9764C88.2365 32.5082 87.7882 31.9726 87.5081 31.3681C87.228 30.7635 87.0879 30.0193 87.0879 29.1355C87.0879 27.6208 87.6762 26.4494 88.8544 25.6215C90.031 24.7935 91.7002 24.3795 93.8622 24.3795C95.9204 24.3795 97.9242 24.8263 99.8703 25.72L98.4631 29.073C97.6062 28.7067 96.807 28.4077 96.0621 28.1744C95.3173 27.9411 94.5593 27.8245 93.7848 27.8245C92.4088 27.8245 91.72 28.1958 91.72 28.9367C91.72 29.354 91.9425 29.7137 92.3858 30.0193C92.829 30.3249 93.7996 30.7766 95.2975 31.3763C96.6323 31.9151 97.6111 32.4178 98.2324 32.886C98.8536 33.3542 99.3134 33.8914 99.6083 34.5009C99.9049 35.1104 100.052 35.8365 100.052 36.6793Z" fill="#21241E"/>
</g>
<defs>
<clipPath id="clip0_773_3764">
<rect width="190.753" height="48" fill="white"/>
</clipPath>
</defs>
</svg>
